<?xml version="1.0" encoding="UTF-8" standalone="no"?>
<svg
   xmlns:dc="http://purl.org/dc/elements/1.1/"
   xmlns:cc="http://creativecommons.org/ns#"
   xmlns:rdf="http://www.w3.org/1999/02/22-rdf-syntax-ns#"
   xmlns:svg="http://www.w3.org/2000/svg"
   xmlns="http://www.w3.org/2000/svg"
   xmlns:sodipodi="http://sodipodi.sourceforge.net/DTD/sodipodi-0.dtd"
   xmlns:inkscape="http://www.inkscape.org/namespaces/inkscape"
   width="210mm"
   height="297mm"
   viewBox="0 0 210 297"
   version="1.1"
   id="svg8"
   inkscape:version="1.0.1 (3bc2e813f5, 2020-09-07)"
   sodipodi:docname="booklogo.svg">
  <defs
     id="defs2" />
  <sodipodi:namedview
     id="base"
     pagecolor="#ffffff"
     bordercolor="#666666"
     borderopacity="1.0"
     inkscape:pageopacity="0.0"
     inkscape:pageshadow="2"
     inkscape:zoom="0.24748737"
     inkscape:cx="1492.2311"
     inkscape:cy="916.78507"
     inkscape:document-units="mm"
     inkscape:current-layer="layer1"
     inkscape:document-rotation="0"
     showgrid="false"
     inkscape:window-width="1286"
     inkscape:window-height="765"
     inkscape:window-x="220"
     inkscape:window-y="86"
     inkscape:window-maximized="0" />
  <metadata
     id="metadata5">
    <rdf:RDF>
      <cc:Work
         rdf:about="">
        <dc:format>image/svg+xml</dc:format>
        <dc:type
           rdf:resource="http://purl.org/dc/dcmitype/StillImage" />
        <dc:title></dc:title>
      </cc:Work>
    </rdf:RDF>
  </metadata>
  <g
     inkscape:label="Katman 1"
     inkscape:groupmode="layer"
     id="layer1">
    <path
       style="fill:#000000;stroke-width:0.776884"
       d="m 49.637382,263.88001 c -1.275669,-0.9328 -1.341733,-1.75603 -0.730355,-9.1024 1.23512,-14.84137 0.40101,-20.71861 -2.820854,-19.87608 -1.160803,0.30355 -1.487254,-0.0214 -1.487254,-1.48055 0,-1.13315 0.453152,-1.86949 1.150527,-1.86949 0.632783,0 1.309422,-0.78658 1.503608,-1.748 1.14652,-5.67583 1.549705,-10.32827 1.447509,-16.703 -0.06336,-3.95239 -0.113875,-11.38136 -0.112334,-16.5088 0.0069,-18.87883 -0.02825,-26.37433 -0.19124,-41.95173 -0.105142,-10.05398 0.207097,-18.36092 0.847072,-22.52964 1.054976,-6.87207 1.172447,-31.37816 0.17619,-36.754789 l -0.548534,-2.960325 -8.89866,9.022734 c -7.474011,7.57825 -9.733608,9.38921 -14.114117,11.31183 -2.868527,1.25901 -5.593897,2.2891 -6.056383,2.2891 -1.298205,0 -0.997387,-4.79691 0.628366,-10.02052 1.558061,-5.006035 6.353501,-10.881672 21.792674,-26.701587 l 6.64812,-6.812066 0.265919,-8.642739 C 49.321222,56.874659 49.097565,53.6276 48.415294,52.352657 46.623027,49.003789 48.132422,48.567065 60.499587,48.856211 l 11.160838,0.260947 4.690066,-5.699136 c 4.939349,-6.002061 24.314319,-24.732796 25.583469,-24.732796 0.40825,0 2.20115,1.890986 3.98424,4.202193 l 3.24197,4.202191 -1.21213,2.900986 c -0.72134,1.726462 -4.57643,6.157047 -9.521779,10.943208 -5.119667,4.954886 -8.02487,8.310674 -7.567785,8.741513 0.439746,0.41451 14.290544,0.39668 34.010924,-0.04379 26.6228,-0.594627 33.50657,-0.545935 34.45807,0.243727 2.42451,2.012187 2.95599,4.985532 3.03453,16.976785 0.0433,6.62294 0.35775,19.451672 0.6986,28.508299 l 0.61974,16.466612 -2.24553,0.45858 c -9.96943,2.03595 -15.33457,5.35857 -25.24999,15.63732 -9.07848,9.41116 -11.57247,15.60613 -11.66679,28.97994 -0.0502,7.12068 0.12124,7.98456 2.6854,13.53444 3.22092,6.97127 9.28255,13.7965 14.68371,16.53348 4.46619,2.26318 12.16084,4.15574 16.95945,4.17131 1.94794,0.007 4.1755,0.47492 4.95012,1.04134 2.20534,1.61257 2.94817,8.38081 1.67757,15.28471 -0.69082,3.75356 -0.92809,8.61965 -0.66693,13.67673 0.52763,10.21637 0.33226,10.3892 -11.81178,10.44858 -4.71189,0.0231 -11.36386,0.37848 -14.78215,0.78986 -11.11633,1.33783 -14.5043,1.52844 -33.01759,1.8576 -18.628558,0.33123 -23.707899,0.76523 -25.462857,2.17568 -0.708301,0.56923 -0.971782,3.36868 -0.923609,9.8132 0.120263,16.09052 0.04196,17.17403 -1.24188,17.17403 -1.633336,0 -4.600105,-1.98147 -10.136697,-6.77019 -2.611113,-2.2584 -4.951653,-4.10618 -5.201218,-4.10618 -0.249559,0 -1.809504,1.8933 -3.466545,4.20731 -1.65704,2.31404 -4.072637,5.09912 -5.368001,6.1891 -2.033373,1.71096 -2.546836,1.84164 -3.757709,0.95622 z m 11.376779,-16.02129 2.042889,-2.71175 5.216557,5.63297 c 2.869112,3.09814 5.5332,5.4373 5.920186,5.19813 0.386994,-0.23918 0.703616,-4.42231 0.703616,-9.29585 0,-7.65534 -0.184981,-8.95591 -1.359548,-9.55864 -2.454967,-1.25976 -17.640314,-1.77926 -19.176407,-0.65606 -1.472805,1.07695 -1.742491,3.91519 -1.378315,14.50607 l 0.200368,5.82664 2.893881,-3.11486 c 1.591642,-1.71319 3.813189,-4.33519 4.936773,-5.82665 z m 6.715733,-17.57678 4.713667,-0.49269 0.869216,-4.99142 c 0.478075,-2.74529 0.841169,-10.30213 0.80687,-16.793 -0.03433,-6.49085 0.161055,-40.96051 0.434122,-76.59923 l 0.496452,-64.797658 -6.485701,5.75447 c -3.56713,3.164944 -8.277156,7.630066 -10.46672,9.92251 -4.909807,5.14045 -4.832474,4.595842 -4.538113,31.957048 0.145041,13.47643 -0.129629,23.52809 -0.795016,29.10106 -0.559082,4.6825 -0.882023,12.37364 -0.717649,17.09145 0.509216,14.61656 0.452707,37.55854 -0.122609,49.79709 -0.302461,6.43369 -0.301279,13.68784 0.0017,16.12035 l 0.552574,4.4227 h 5.268332 c 2.897577,0 7.389483,-0.22173 9.981995,-0.49268 z m 47.177056,-4.27437 c 3.264,-0.4705 11.39483,-0.57295 20.33723,-0.2563 18.53222,0.65625 23.76221,0.16234 25.11877,-2.37252 0.78166,-1.46052 0.78502,-2.57854 0.0172,-5.56733 -0.52869,-2.0569 -0.93593,-7.48387 -0.90497,-12.05992 0.031,-4.57605 -0.27859,-8.52707 -0.68789,-8.78003 -1.13881,-0.70383 -8.45772,-2.46578 -12.80456,-3.08256 -7.56728,-1.07374 -11.6341,-3.93239 -20.15363,-14.16646 -1.14323,-1.3733 -2.92178,-5.04407 -3.95236,-8.15728 -1.73492,-5.24099 -1.85394,-6.61019 -1.60637,-18.47899 0.1471,-7.05021 0.39894,-13.48626 0.55974,-14.30233 0.31585,-1.60312 0.82936,-2.21846 8.44961,-10.12523 6.36094,-6.60012 18.35048,-15.699 24.30934,-18.44843 1.61976,-0.74734 3.45959,-1.8734 4.08853,-2.50233 1.62932,-1.62931 2.08142,-13.654506 1.27796,-33.991332 -0.74806,-18.934015 -1.15525,-20.382802 -5.98333,-21.288564 -1.50335,-0.282023 -11.03254,-0.05506 -21.17599,0.504421 -10.14346,0.559461 -24.57965,0.932814 -32.080458,0.829667 l -13.637815,-0.187526 -4.305443,4.513809 -4.305443,4.513802 0.392833,37.667403 c 0.216053,20.71708 0.359379,43.08616 0.318503,49.70911 -0.226735,36.73436 -0.799389,68.28086 -1.278766,70.44553 -0.373568,1.68685 -0.138226,3.25786 0.743396,4.96275 l 1.289987,2.49455 15.268084,-0.545 c 8.397432,-0.29977 17.715252,-0.89778 20.706252,-1.32891 z M 86.468911,96.269993 C 85.610542,93.28041 84.476204,81.438287 84.313697,73.770249 l -0.210514,-9.933414 2.583291,-0.428732 c 1.420815,-0.2358 17.495846,-0.579124 35.722286,-0.76296 l 33.13899,-0.334235 0.43916,5.183889 c 0.24156,2.851133 0.18692,9.90006 -0.1214,15.66425 l -0.56058,10.480369 -3.88442,0.624236 c -2.13643,0.343358 -16.64474,0.727823 -32.2407,0.854388 -15.59594,0.126549 -29.317654,0.501627 -30.492702,0.833441 -1.175039,0.331813 -2.173225,0.475139 -2.218197,0.318512 z m 65.792419,-5.55181 c 0.43649,-0.507183 0.78226,-22.283482 0.38514,-24.254578 -0.46199,-2.292999 -0.53846,-2.326245 -4.73219,-2.05803 -2.34443,0.14996 -4.66533,0.601307 -5.15754,1.003021 -0.496,0.404799 -11.89666,0.884607 -25.57412,1.07633 -13.57352,0.190255 -25.83926,0.563558 -27.257156,0.829551 l -2.578008,0.483647 0.48655,10.597565 c 0.267594,5.828658 0.641071,10.77236 0.829932,10.986001 0.188862,0.213632 10.424897,0.563242 22.746772,0.776875 12.32186,0.21364 22.69404,0.691848 23.04931,1.062654 0.52655,0.549626 17.30339,0.07555 17.80131,-0.503036 z m -4.14288,-2.316161 c -0.41747,-0.529391 -0.97684,-2.907243 -1.24305,-5.284108 -0.58064,-5.184461 -1.95752,-9.427956 -2.87506,-8.860883 -0.36592,0.226147 -0.90143,2.498123 -1.19,5.048832 -0.64668,5.715792 -2.24181,6.214325 -3.03155,0.947433 -0.62778,-4.186689 -1.72071,-6.645023 -2.68837,-6.046967 -0.36116,0.22321 -0.9044,3.204591 -1.2072,6.625261 -0.38771,4.379905 -0.85605,6.219451 -1.58341,6.219451 -0.56809,0 -1.14349,-0.961407 -1.2787,-2.136438 -0.39903,-3.467907 0.76349,-12.665612 1.75125,-13.855794 1.34434,-1.619819 3.46739,-1.338732 4.90014,0.648766 l 1.26007,1.747985 1.26008,-1.747985 c 1.95108,-2.70653 3.32623,-2.104867 5.32685,2.330649 3.00965,6.672523 3.48286,18.021005 0.59895,14.363798 z m -35.61557,-0.692901 c -0.3301,-0.534118 -0.75378,-4.699089 -0.94152,-9.255474 -0.36265,-8.801895 0.2246,-10.494931 2.7346,-7.883826 0.76333,0.794082 3.42281,3.603618 5.90997,6.2434 2.48716,2.639807 4.61993,4.799631 4.73948,4.799631 0.11953,0 0.83486,-2.621985 1.58955,-5.826635 0.96147,-4.082755 1.72435,-5.826634 2.54898,-5.826634 1.29834,0 1.16906,1.709364 -0.81022,10.712038 -1.43246,6.515506 -2.47052,7.464996 -4.85104,4.4372 -1.00782,-1.281851 -3.24875,-3.889846 -4.97985,-5.795528 l -3.14745,-3.464888 v 5.506191 c 0,3.792223 -0.34121,5.789358 -1.09616,6.415908 -0.84191,0.698748 -1.23536,0.684501 -1.69634,-0.06128 z M 91.697539,85.400149 c -0.608762,-3.043735 -0.501378,-9.000534 0.208192,-11.550305 0.769229,-2.764133 5.959858,-5.602836 9.342889,-5.109527 3.03162,0.442076 3.91847,1.468856 3.93539,4.556335 0.0154,2.815972 -2.79878,5.601467 -6.900876,6.830494 -2.942444,0.88158 -3.204208,1.17212 -3.054779,3.390824 0.307648,4.568094 -2.675574,6.158373 -3.530816,1.882179 z m 8.343841,-8.504986 c 2.78744,-2.192598 2.81926,-5.381806 0.0537,-5.381806 -3.44313,0 -4.998669,1.338176 -4.998669,4.300194 0,3.221749 1.740295,3.602399 4.944959,1.081612 z M 26.570374,109.13931 c 1.693427,-1.18613 1.703821,-1.2783 0.393801,-3.49599 -1.673067,-2.83229 -2.252218,-2.86149 -2.801179,-0.14127 -0.237116,1.17503 -0.667836,2.74823 -0.957112,3.49597 -0.669771,1.73129 0.994664,1.8012 3.36449,0.14127 z M 38.450613,97.277442 c 8.573013,-9.137814 10.156076,-11.454108 9.885208,-14.463685 l -0.240917,-2.676784 -9.941888,9.388847 -9.941889,9.388831 1.725809,1.837029 c 0.949184,1.01039 2.131904,1.83703 2.628243,1.83703 0.496356,0 3.144789,-2.39006 5.885434,-5.311268 z M 64.563856,70.289854 c 3.430273,-3.813586 6.983811,-7.599763 7.896755,-8.41374 1.934168,-1.724466 2.40822,-7.454216 0.616732,-7.454216 -0.573742,0 -5.115382,4.194468 -10.092521,9.321045 -8.984947,9.25471 -9.05308,9.352848 -9.574473,13.789692 l -0.525125,4.468654 2.720891,-2.388823 c 1.496496,-1.313854 5.527478,-5.509035 8.957741,-9.322612 z m 2.091043,-16.782732 c -0.466133,-0.754227 -6.844488,-0.717589 -9.622122,0.05523 -1.69001,0.470238 -2.064289,1.232086 -2.919811,5.943415 -0.539717,2.972217 -0.789402,5.906603 -0.554837,6.520846 0.297855,0.780018 2.396496,-0.842985 6.959075,-5.381864 3.592937,-3.57427 6.354902,-6.786226 6.137695,-7.13766 z m 12.515378,1.691659 c 0.773384,-0.85457 1.089756,-1.58051 0.703069,-1.613209 -0.386688,-0.03267 -1.314866,-0.176555 -2.062616,-0.319698 -0.990913,-0.189691 -1.359547,0.247733 -1.359547,1.613209 0,2.28056 0.853708,2.380929 2.719094,0.319698 z M 90.129252,43.666166 c 8.631941,-8.101359 14.456938,-15.301157 14.131288,-17.466492 -0.12654,-0.841023 -0.87705,-1.914435 -1.66792,-2.385359 -1.20353,-0.716629 -1.71016,-0.476244 -3.107552,1.474427 -0.918252,1.281858 -4.481126,5.302235 -7.91747,8.934167 -3.43636,3.631935 -7.900362,8.589843 -9.920046,11.017574 l -3.672142,4.41406 2.1512,0.325063 c 1.183166,0.178786 2.270475,0.37745 2.416256,0.441471 0.145771,0.06402 3.55965,-2.975688 7.586386,-6.754911 z"
       id="path24" />
  </g>
</svg>
