<?xml version="1.0" encoding="UTF-8" standalone="no"?>
<svg
   xmlns:dc="http://purl.org/dc/elements/1.1/"
   xmlns:cc="http://creativecommons.org/ns#"
   xmlns:rdf="http://www.w3.org/1999/02/22-rdf-syntax-ns#"
   xmlns:svg="http://www.w3.org/2000/svg"
   xmlns="http://www.w3.org/2000/svg"
   xmlns:sodipodi="http://sodipodi.sourceforge.net/DTD/sodipodi-0.dtd"
   xmlns:inkscape="http://www.inkscape.org/namespaces/inkscape"
   width="210mm"
   height="297mm"
   viewBox="0 0 210 297"
   version="1.1"
   id="svg8"
   inkscape:version="1.0.1 (3bc2e813f5, 2020-09-07)"
   sodipodi:docname="PNMbookpenguinicon.svg">
  <defs
     id="defs2" />
  <sodipodi:namedview
     id="base"
     pagecolor="#ffffff"
     bordercolor="#666666"
     borderopacity="1.0"
     inkscape:pageopacity="0.0"
     inkscape:pageshadow="2"
     inkscape:zoom="0.98994949"
     inkscape:cx="406.62122"
     inkscape:cy="556.53037"
     inkscape:document-units="mm"
     inkscape:current-layer="layer1"
     inkscape:document-rotation="0"
     showgrid="false"
     inkscape:window-width="1440"
     inkscape:window-height="783"
     inkscape:window-x="0"
     inkscape:window-y="29"
     inkscape:window-maximized="1" />
  <metadata
     id="metadata5">
    <rdf:RDF>
      <cc:Work
         rdf:about="">
        <dc:format>image/svg+xml</dc:format>
        <dc:type
           rdf:resource="http://purl.org/dc/dcmitype/StillImage" />
        <dc:title></dc:title>
      </cc:Work>
    </rdf:RDF>
  </metadata>
  <g
     inkscape:label="Katman 1"
     inkscape:groupmode="layer"
     id="layer1">
    <path
       style="fill:#000000;stroke-width:0.528286"
       d="m 172.0699,233.67588 c -22.41883,-9.3372 -20.7048,-8.74213 -22.0755,-7.66395 -0.67678,0.53237 -2.04873,2.76135 -3.04879,4.95332 -1.07531,2.35694 -2.14206,3.99023 -2.6107,3.99721 -0.52401,0.007 -1.66937,-2.17821 -3.3813,-6.45338 -1.42389,-3.55585 -3.27465,-8.15552 -4.11282,-10.2215 l -1.52393,-3.75632 -15.43376,-0.46997 c -15.26651,-0.46487 -24.1652,-0.4747 -33.39547,-0.037 -2.61502,0.12399 -6.43747,0.25562 -8.49433,0.29244 l -3.739769,0.0669 -1.08232,2.50937 c -0.59528,1.38014 -1.78052,4.29232 -2.63389,6.4715 -2.019693,5.15752 -3.114383,5.47487 -5.263479,1.52592 -0.826366,-1.51845 -1.871848,-2.9872 -2.323285,-3.26389 -0.599839,-0.36767 -3.799583,0.73526 -11.886428,4.0971 -6.08609,2.53012 -11.42223,4.63903 -11.858063,4.68647 -0.594584,0.0647 -0.831624,-0.58708 -0.949447,-2.61069 -0.118453,-2.0335 0.241158,-3.69931 1.461652,-6.77172 0.890281,-2.24115 1.498776,-4.26883 1.35223,-4.50594 -0.26055,-0.42159 -4.352401,-1.24156 -9.418857,-1.88748 l -2.535706,-0.32327 0.158421,-2.69565 0.158421,-2.69566 7.131856,-2.35907 c 3.922528,-1.29748 7.23448,-2.44894 7.359895,-2.5588 0.125341,-0.10992 -0.486868,-0.96878 -1.360645,-1.90873 -4.425809,-4.76104 -7.865962,-10.97476 -9.416416,-17.00823 -0.952667,-3.70728 -1.062598,-11.98258 -0.205952,-15.50363 0.331742,-1.36354 1.758113,-5.26859 3.169719,-8.67789 2.7671,-6.68312 3.000815,-8.07008 1.763234,-10.46331 -1.51387,-2.92748 -4.35932,-3.85737 -12.563942,-4.10585 -8.486691,-0.25702 -17.794402,0.30297 -16.687404,1.00398 1.463195,0.92655 -0.09329,0.45096 -2.948747,-0.90107 -2.605849,-1.23381 -2.920025,-1.55687 -2.920025,-3.00269 0,-1.2413 0.586766,-2.18542 2.509365,-4.03765 2.912747,-2.80614 7.733537,-5.41142 19.150347,-10.34935 8.536393,-3.69209 16.448328,-7.54046 18.179726,-8.8426 0.94142,-0.70803 0.105873,-1.44025 -12.235465,-10.72249 -7.285245,-5.47941 -13.623709,-10.602166 -14.085494,-11.383906 -0.4618,-0.78174 -0.83962,-2.474862 -0.83962,-3.76249 0,-1.887766 0.371755,-2.818314 1.919634,-4.805096 2.361007,-3.030436 4.851773,-3.983012 7.837883,-2.997506 1.082784,0.357349 7.472508,4.806624 14.19938,9.887292 l 12.230672,9.237546 0.403472,-4.93732 c 0.677216,-8.287103 1.949973,-16.02729 3.604115,-21.918225 1.423916,-5.071038 1.497668,-5.698297 0.765179,-6.507697 -1.371129,-1.515083 -0.926835,-3.503572 2.160567,-9.670123 4.285328,-8.559126 7.688192,-13.305924 10.283036,-14.344173 1.148091,-0.459374 2.347981,-0.835232 2.666411,-0.835232 0.31843,0 2.15601,-1.38495 4.08351,-3.077682 4.685219,-4.114524 7.754919,-6.143729 12.922159,-8.542099 5.51456,-2.559592 10.67342,-3.700509 16.73253,-3.700509 9.31225,0 18.04103,3.187374 26.57091,9.702529 2.55588,1.952189 5.2137,3.764886 5.90628,4.028192 1.22677,0.466427 1.2441,0.435204 0.67186,-1.211045 -0.32306,-0.929395 -1.39609,-3.071244 -2.38453,-4.759648 -0.98843,-1.688404 -1.68089,-3.37275 -1.53882,-3.743007 0.22973,-0.598642 11.82718,-5.073584 13.14894,-5.073584 0.33128,0 0.45695,2.442322 0.33927,6.59316 -0.18193,6.417412 -0.1539,6.61631 1.05162,7.460902 1.15104,0.806435 1.47844,0.802796 4.63456,-0.05151 1.86781,-0.505587 5.09446,-1.73321 7.17033,-2.728046 2.07587,-0.994836 4.10666,-1.739589 4.51286,-1.654995 0.74573,0.155276 6.48071,12.457709 6.48071,13.90214 0,0.636724 -0.99179,0.778702 -5.41492,0.775168 -2.97821,-0.003 -7.53198,-0.246864 -10.11948,-0.543294 -4.50095,-0.515635 -4.75815,-0.488605 -5.94321,0.624713 -0.78699,0.739317 -1.23866,1.765795 -1.23866,2.814915 0,0.908191 -0.27635,1.927601 -0.61411,2.265377 -0.46664,0.466622 -0.0845,1.754205 1.59156,5.361389 4.4999,9.685143 7.06785,19.787804 8.01911,31.548258 0.30249,3.739656 0.60099,7.117176 0.66335,7.505586 0.0651,0.40547 5.31448,-3.22319 12.32648,-8.520706 6.71721,-5.074816 13.10694,-9.521919 14.19938,-9.882458 3.07747,-1.015666 5.66847,-0.01497 7.92609,3.062168 2.07657,2.830101 2.45837,6.044175 1.00937,8.49713 -0.46178,0.78174 -6.80025,5.904496 -14.08549,11.383886 -12.34137,9.28226 -13.17689,10.01446 -12.23547,10.7225 1.7314,1.30215 9.64334,5.15052 18.17973,8.84261 11.45031,4.9524 16.23854,7.5441 19.18832,10.38594 2.19747,2.11705 2.524,2.69827 2.3773,4.23158 -0.13777,1.43961 -0.5215,1.94247 -2.01906,2.64567 -1.55345,0.72945 -2.52454,0.78783 -6.07528,0.36527 -2.32446,-0.27664 -8.14881,-0.42182 -12.94301,-0.32262 -7.78719,0.1611 -8.95496,0.30579 -10.95104,1.35684 -2.74842,1.4472 -4.06757,3.76312 -3.64582,6.40061 0.16757,1.04797 1.27008,4.16201 2.45001,6.92009 1.17994,2.7581 2.49385,6.35654 2.91981,7.99655 1.00688,3.87657 0.99075,12.06412 -0.0316,16.05752 -1.15674,4.5183 -4.45812,11.13395 -7.23927,14.50679 l -2.39584,2.90556 12.74868,4.27038 12.74867,4.27039 v 2.86147 2.86147 l -2.16235,-0.15845 c -1.1893,-0.0872 -4.61234,0.44775 -7.60677,1.18864 -2.99445,0.74091 -5.52788,1.3471 -5.62988,1.3471 -0.58287,0 -0.0548,3.67708 0.60698,4.22629 0.43584,0.36171 0.79242,1.12891 0.79242,1.7049 0,0.57596 0.59433,2.2305 1.32073,3.67671 1.65879,3.30261 1.90202,8.39272 0.3962,8.29192 -0.50847,-0.034 -4.49042,-1.54705 -8.84878,-3.36226 z m 8.61811,0.124 c -0.13133,-1.36164 -0.54683,-1.90111 -2.01453,-2.61605 -1.01696,-0.49538 -1.53621,-0.9121 -1.15392,-0.92606 0.3823,-0.0135 1.15492,0.22072 1.71694,0.52149 1.28515,0.68781 1.28027,0.43083 -0.0328,-1.72274 -0.58003,-0.95133 -1.05549,-2.3053 -1.05656,-3.00881 -0.001,-0.70351 -0.3631,-1.67815 -0.80448,-2.16587 -0.90371,-0.99858 -1.72066,-6.64406 -0.88689,-6.12875 0.28355,0.17523 3.33524,-0.40078 6.78153,-1.28005 3.44631,-0.87926 6.80089,-1.46678 7.45464,-1.30559 1.03097,0.25421 1.18864,0.0857 1.18864,-1.27066 0,-0.86006 -0.25652,-1.72229 -0.57005,-1.91607 -0.31353,-0.19377 -6.02859,-2.2176 -12.70013,-4.49739 l -12.13005,-4.14508 -2.70114,2.0444 c -5.42898,4.10904 -12.64726,6.85034 -21.44611,8.14463 -2.69903,0.39702 -5.01184,0.82636 -5.13956,0.95408 -0.31019,0.31019 6.71525,17.86419 7.14959,17.86419 0.18668,0 0.90611,-1.2099 1.59873,-2.68867 1.38943,-2.9665 3.93776,-5.76391 5.25068,-5.76391 0.77211,0 5.592,1.9118 22.72634,9.01432 3.34141,1.38507 6.26863,2.53849 6.50497,2.56314 0.23632,0.0247 0.35519,-0.7271 0.26413,-1.67055 z m -35.81282,-5.30546 c -0.0454,-1.57669 3.8508,-7.55552 5.43966,-8.34744 0.87189,-0.43458 0.79852,-0.2738 -0.30188,0.66142 -0.79959,0.67956 -2.27998,2.78081 -3.28979,4.66943 -1.00979,1.88862 -1.84139,3.24608 -1.84799,3.01659 z m 23.34578,-1.54575 c -2.11691,-0.88507 -3.7447,-1.71345 -3.61731,-1.84084 0.25149,-0.25149 8.25867,2.97214 8.25867,3.32488 0,0.38438 -0.73288,0.15005 -4.64136,-1.48404 z m -26.32891,-1.79144 c -0.19502,-0.55006 -0.67919,-1.80923 -1.07594,-2.79815 -0.39675,-0.98893 -0.63341,-1.88602 -0.52589,-1.99353 0.10752,-0.10752 0.70727,1.03608 1.3328,2.54128 0.62556,1.50523 1.02176,2.85235 0.88048,2.99363 -0.14122,0.14121 -0.41643,-0.19316 -0.61145,-0.74323 z m 20.67244,-0.72992 c -0.18508,-0.29947 0.0269,-0.38802 0.49711,-0.20762 0.91521,0.3512 1.08266,0.72986 0.32276,0.72986 -0.27342,0 -0.64236,-0.23501 -0.81987,-0.52224 z m -2.38103,-1.06262 c -0.47613,-0.3077 -0.54129,-0.51535 -0.16324,-0.5202 0.34604,-0.004 0.77609,0.22964 0.95567,0.5202 0.40536,0.65588 0.22247,0.65588 -0.79243,0 z m -3.69799,-1.36148 -1.32072,-0.79574 1.32072,0.35008 c 0.72639,0.19255 1.67731,0.55183 2.11314,0.7984 0.70438,0.39851 0.70438,0.44802 0,0.44567 -0.43583,-0.002 -1.38675,-0.36075 -2.11314,-0.79841 z m -3.69801,-1.54409 c -0.72639,-0.41524 -1.08298,-0.755 -0.79242,-0.755 0.29056,0 1.1226,0.33976 1.849,0.755 0.72639,0.41524 1.08298,0.75498 0.79243,0.75498 -0.29056,0 -1.12262,-0.33974 -1.84901,-0.75498 z m -13.6496,-2.13577 c -0.33776,-0.74129 -0.6048,-1.63377 -0.59343,-1.98331 0.012,-0.34951 0.37162,0.1731 0.80053,1.16138 0.90279,2.08009 0.71169,2.83847 -0.2071,0.82193 z m 36.36589,-2.73639 c 0,-0.66471 1.51004,-1.98233 1.865,-1.62736 0.14002,0.14001 -0.2223,0.68621 -0.80519,1.21372 -0.5829,0.52751 -1.05981,0.71365 -1.05981,0.41364 z m -118.990847,6.35547 c 6.87806,-2.76347 7.377567,-2.67914 9.664267,1.63133 0.709696,1.33779 1.425309,2.43235 1.590274,2.43235 0.347316,0 2.391437,-4.8007 3.108047,-7.29943 0.30246,-1.05454 0.30007,-1.5856 -0.006,-1.3963 -0.27187,0.16803 -0.49432,0.68771 -0.49432,1.15481 0,0.46712 -0.15086,0.69844 -0.33525,0.51405 -0.18438,-0.18439 -0.0301,-1.07211 0.34299,-1.97269 0.39304,-0.94885 0.82873,-1.39399 1.03606,-1.05852 0.21552,0.34872 0.5998,0.0478 0.96639,-0.75678 0.3684,-0.80853 0.40455,-1.3357 0.0916,-1.3357 -0.28433,0 -0.52059,0.29715 -0.52504,0.66036 -0.006,0.46215 -0.12459,0.48417 -0.39622,0.0734 -0.21347,-0.32286 -1.57677,-0.75255 -3.029552,-0.95488 -7.28845,-1.01498 -15.136473,-3.82124 -20.950092,-7.49121 l -1.970909,-1.24419 -6.765357,2.3241 c -3.720949,1.27825 -7.181378,2.48687 -7.689855,2.68581 -0.570219,0.22312 -0.924498,0.92125 -0.924498,1.82182 0,1.42204 0.09719,1.46965 3.731192,1.82773 2.052163,0.20223 4.775086,0.68183 6.050944,1.0658 1.705161,0.51318 2.386704,0.53884 2.572485,0.0969 0.909777,-2.16453 -0.56718,3.7409 -1.603796,6.41259 -0.707615,1.82375 -1.153736,3.53086 -0.991361,3.79357 0.162359,0.2627 0.05361,0.62697 -0.241712,0.80947 -0.295308,0.1825 -0.536915,1.01627 -0.536915,1.85282 v 1.52097 l 5.679069,-2.38897 c 3.123491,-1.31394 8.355989,-3.46452 11.627779,-4.77904 z m -13.872984,2.0859 c 0.764175,-0.71016 6.13383,-2.89433 6.417682,-2.61048 0.13193,0.13193 -0.42607,0.48191 -1.239932,0.77779 -0.813863,0.29587 -2.430672,0.93974 -3.592898,1.4308 -1.162227,0.49105 -1.875413,0.6719 -1.584852,0.40189 z m 25.629937,-1.8211 c -0.0045,-0.49133 0.229642,-1.04026 0.520202,-1.21982 0.668593,-0.41322 0.668593,0.28613 0,1.32071 -0.441329,0.6829 -0.513224,0.66896 -0.520202,-0.10094 z m -1.955125,-0.82361 c -0.180959,-0.50848 -0.428855,-1.16223 -0.550887,-1.45279 -0.122046,-0.29056 0.152371,-0.0668 0.609753,0.49719 0.830501,1.02412 1.081318,1.8801 0.550888,1.8801 -0.154409,0 -0.428796,-0.41603 -0.609754,-0.9245 z M 50.88982,220.45809 c 2.009334,-1.09198 7.163305,-3.064 6.542111,-2.50314 -0.590765,0.53338 -6.998385,3.30848 -7.562898,3.27544 -0.198764,-0.012 0.260595,-0.35917 1.020787,-0.7723 z m 13.663364,-2.12489 c -0.367547,-0.44285 -0.565936,-0.9075 -0.440909,-1.03254 0.125041,-0.12504 0.517537,0.2373 0.872189,0.80519 0.766976,1.22812 0.511188,1.36296 -0.43128,0.22735 z m -22.472647,-6.30986 c -0.564005,-0.42659 -0.757422,-0.78318 -0.429799,-0.79242 0.327624,-0.009 0.891613,0.33979 1.253335,0.77562 0.835098,1.00625 0.493832,1.01321 -0.823536,0.0168 z m -2.445242,-1.1701 c 0.381354,-0.15261 0.836999,-0.13388 1.012551,0.0416 0.175552,0.17554 -0.136422,0.3004 -0.693374,0.27746 -0.615428,-0.0253 -0.740605,-0.15053 -0.319177,-0.31917 z m 52.663485,1.47118 c 2.03389,-0.24146 7.26392,-0.24239 11.62228,-0.001 33.62129,1.85398 45.88846,0.49775 56.7907,-6.27872 11.54215,-7.1742 18.33548,-22.30396 15.6588,-34.87451 -0.45175,-2.12159 -1.80169,-6.0441 -2.99987,-8.71671 -3.73414,-8.32926 -3.4153,-13.3976 0.98404,-15.64198 3.62608,-1.84988 7.95365,-2.26656 19.36673,-1.86466 13.95962,0.49157 15.10697,-0.002 10.44179,-4.48791 -2.97153,-2.85759 -6.87536,-4.96934 -18.62206,-10.07341 -8.72494,-3.79109 -17.84289,-8.30076 -19.79065,-9.7883 -1.01999,-0.77901 -1.0158,-0.81147 0.26415,-2.04037 0.71535,-0.68683 6.8824,-5.45571 13.70455,-10.59754 6.82215,-5.14182 12.82324,-9.984566 13.33573,-10.761666 1.39748,-2.118947 1.14796,-3.892575 -0.93064,-6.614825 -1.97738,-2.589691 -3.52756,-3.307039 -6.05436,-2.801677 -0.85001,0.169996 -7.4622,4.745945 -14.69376,10.168772 l -13.14827,9.859696 0.51516,2.44015 c 0.28334,1.34207 0.96105,3.07117 1.50605,3.84241 0.54499,0.77124 0.9909,1.55788 0.9909,1.74811 0,0.77834 -1.12422,-0.43622 -2.3676,-2.5579 -1.19487,-2.0389 -1.37688,-3.1464 -1.87189,-11.39017 -0.64316,-10.710899 -1.94091,-17.982876 -4.71907,-26.443286 -1.61368,-4.91413 -4.68552,-12.119334 -5.59943,-13.133727 -0.14121,-0.156684 -14.64795,12.005089 -28.23315,23.669256 -9.14429,7.851227 -12.61682,10.592791 -13.41708,10.592791 -0.48009,0 -11.01573,-5.113414 -23.41255,-11.363136 -12.396808,-6.249737 -22.717431,-11.1826 -22.934688,-10.961928 -0.678654,0.689285 -2.943193,9.151942 -3.85354,14.400778 -0.478736,2.760302 -1.086573,8.712846 -1.350732,13.227882 -0.264174,4.51505 -0.737131,8.88464 -1.051007,9.71021 -0.745098,1.95974 -2.589212,4.53277 -3.248682,4.53277 -0.285544,0 0.06125,-0.77263 0.770555,-1.71694 0.709367,-0.94431 1.518048,-2.81499 1.797078,-4.15706 L 52.255602,107.80917 39.10732,97.949474 C 31.875775,92.526647 25.263583,87.950698 24.41357,87.780687 c -2.526796,-0.505347 -4.07698,0.212001 -6.054358,2.801677 -2.07437,2.716725 -2.328062,4.496012 -0.94094,6.59917 0.506844,0.76845 7.023212,6.029966 14.480805,11.692266 10.610285,8.05603 13.711463,10.16496 14.259099,9.69679 0.384918,-0.32906 0.0015,0.17592 -0.85103,1.12214 -1.833408,2.03385 -8.540003,5.56278 -19.836504,10.43776 -4.503634,1.94353 -10.090262,4.51748 -12.414715,5.7199 -4.007511,2.07305 -9.244996,6.36874 -9.244996,7.58257 0,1.52182 3.183541,1.89091 13.094087,1.51809 10.759061,-0.40473 15.715391,0.0701 19.180028,1.83768 4.444962,2.26764 4.775475,7.30489 1.02781,15.66431 -3.973967,8.86417 -4.624482,16.27923 -2.099259,23.9287 4.927727,14.92717 15.785999,23.33361 33.670703,26.0677 4.323021,0.66086 17.58854,0.59098 23.61448,-0.12444 z M 78.40041,209.3764 c -7.038249,-2.19695 -13.947124,-11.67868 -17.575722,-24.12086 -1.632608,-5.59812 -2.004363,-17.93407 -0.76506,-25.38668 2.162604,-13.00472 8.169551,-26.03129 15.372073,-33.33555 1.135589,-1.15164 1.772499,-2.1914 1.497339,-2.44442 -0.26335,-0.24217 -1.667469,-0.83204 -3.120259,-1.31081 -10.607182,-3.49559 -16.838665,-16.58806 -12.530635,-26.327096 2.072813,-4.685892 8.504785,-9.912281 12.198825,-9.912281 0.57987,0 7.868489,3.820204 16.196919,8.489327 8.32842,4.669134 15.41658,8.37846 15.75145,8.24295 0.54807,-0.22178 23.82371,-19.530211 28.34385,-23.512789 2.24543,-1.978395 2.69409,-2.006159 6.18142,-0.382507 12.43038,5.787443 14.39711,26.202246 3.67336,38.129646 -2.30485,2.56355 -7.77357,6.01337 -9.53251,6.01337 -1.25287,0 -1.10123,0.31897 1.71497,3.60764 10.13924,11.84017 15.40305,26.8081 15.45185,43.93807 0.0394,13.79816 -3.99077,25.28141 -11.67794,33.27499 -4.45006,4.62742 -6.55736,5.52992 -12.94301,5.5431 -2.90556,0.006 -9.11696,-0.45339 -13.80309,-1.02086 l -8.52024,-1.03177 -9.17732,1.17485 c -10.34485,1.32432 -13.46253,1.39356 -16.73627,0.37168 z m 55.43098,-2.20926 c 4.81461,-2.62045 10.03493,-9.62501 13.09429,-17.56972 5.38898,-13.99452 3.9763,-32.74465 -3.65083,-48.45619 -2.57125,-5.29665 -7.34448,-12.20339 -10.513,-15.21201 -2.01733,-1.91553 -2.06746,-2.81681 -0.18131,-3.2602 2.93944,-0.69102 7.65994,-3.63177 10.01855,-6.24134 3.17598,-3.51387 5.77852,-9.08042 6.52183,-13.94946 1.0539,-6.903616 -1.00256,-14.074887 -5.30855,-18.511927 -2.0263,-2.087968 -5.6176,-4.295301 -6.98838,-4.295301 -0.37691,0 -2.15648,1.28306 -3.95458,2.851259 -8.13201,7.092173 -27.07477,22.506459 -27.65841,22.506459 -0.35592,0 -7.30828,-3.72511 -15.4497,-8.278016 -8.14141,-4.552899 -15.318399,-8.376607 -15.948859,-8.497126 -1.85716,-0.355028 -5.914345,1.908957 -8.424804,4.7012 -3.049558,3.391846 -4.168882,6.756296 -3.898358,11.717672 0.483214,8.86216 7.027316,15.82129 16.941991,18.01645 0.79904,0.17692 1.45279,0.5059 1.45279,0.7311 0,0.22519 -1.31934,1.82533 -2.93187,3.55586 -7.300249,7.83444 -12.548292,18.43202 -15.10089,30.49383 -1.675121,7.9154 -1.673114,20.02402 0.0045,26.27358 1.288751,4.8014 4.332813,11.76694 6.601246,15.10523 2.400725,3.53299 6.308935,7.19387 9.049874,8.47717 3.18734,1.49231 8.27138,1.63544 16.37685,0.46108 7.10926,-1.03002 15.57442,-0.9357 23.24456,0.259 8.46614,1.31867 13.11542,1.07411 16.70321,-0.8786 z M 99.76104,139.32282 c -6.46028,-4.14178 -16.74468,-15.44981 -15.33411,-16.86037 1.17475,-1.17474 13.13266,-2.76079 20.81483,-2.76079 7.6508,0 19.63872,1.58464 20.80409,2.75001 0.70325,0.70326 -1.63301,4.04452 -6.1654,8.81756 -5.60689,5.90462 -12.29104,10.75033 -14.80096,10.73002 -0.63714,-0.004 -3.03044,-1.20957 -5.31845,-2.67643 z m 7.06451,0.83734 c 4.84406,-2.50495 10.98546,-7.7705 15.66912,-13.43447 1.54475,-1.86807 2.73907,-3.46604 2.65405,-3.55105 -0.0851,-0.0851 -3.23192,-0.66283 -6.99311,-1.28401 -8.94882,-1.47796 -17.43227,-1.48224 -26.0302,-0.0135 -3.58204,0.61206 -6.62926,1.11283 -6.77162,1.11283 -0.49913,0 2.14218,3.36186 5.25949,6.69427 3.54867,3.79354 8.61197,7.96635 12.05389,9.93393 2.74612,1.56982 2.28598,1.50989 4.15838,0.54163 z m -4.22522,-3.4344 c -0.43583,-0.28167 -0.55468,-0.5121 -0.26414,-0.5121 0.29056,0 0.88489,0.23043 1.32072,0.5121 0.43583,0.28166 0.55471,0.5121 0.26415,0.5121 -0.29056,0 -0.88488,-0.23044 -1.32073,-0.5121 z m 5.28286,-0.48799 c 1.01696,-0.57892 2.0802,-1.06254 2.36276,-1.07472 0.85701,-0.037 -1.47782,1.39563 -2.89105,1.77384 -0.98589,0.26384 -0.85196,0.0866 0.52829,-0.69912 z m -7.66014,-0.56858 c -0.17956,-0.29056 -0.0888,-0.52829 0.20179,-0.52829 0.29056,0 0.67521,0.23773 0.85479,0.52829 0.17958,0.29055 0.0888,0.52828 -0.20179,0.52828 -0.29056,0 -0.67521,-0.23773 -0.85479,-0.52828 z m -2.14424,-1.30392 c -0.56401,-0.42659 -0.75741,-0.78318 -0.42979,-0.79243 0.32761,-0.009 0.89162,0.3398 1.25332,0.77563 0.83512,1.00625 0.49385,1.01321 -0.82353,0.0168 z m 12.9741,0.59766 c 0,-0.14526 0.89148,-0.79579 1.98108,-1.4456 1.08958,-0.6498 3.05084,-2.03822 4.35834,-3.08538 3.63244,-2.90915 4.65507,-3.55402 2.90558,-1.83226 -2.46214,2.42313 -9.245,7.09171 -9.245,6.36324 z m -10.40406,-2.87001 c -6.75838,-4.07031 -9.33158,-6.0492 -8.48328,-6.52394 0.70218,-0.39295 6.97741,1.67713 7.79334,2.57088 0.37379,0.40943 -1.39159,-0.12759 -4.62249,-1.40621 -1.52542,-0.60366 -2.7735,-0.99806 -2.7735,-0.87643 0,0.46262 7.21654,5.23995 9.91318,6.56251 l 2.8208,1.38346 3.51558,-1.82275 c 1.93358,-1.0025 4.50641,-2.57904 5.71739,-3.50342 2.15292,-1.64334 5.2302,-3.4645 4.18319,-2.47564 -3.2745,3.09265 -11.60382,8.08708 -13.46291,8.0726 -0.73101,-0.006 -2.80159,-0.89715 -4.6013,-1.98106 z m -4.98361,0.53862 c -0.65711,-0.83788 -0.63843,-0.85657 0.19946,-0.19945 0.50848,0.39877 0.9245,0.81479 0.9245,0.9245 0,0.4348 -0.43382,0.15494 -1.12396,-0.72505 z m -4.1589,-2.80003 c -1.3075,-1.17526 -1.90183,-1.88989 -1.3207,-1.5881 1.48267,0.77003 4.82174,3.72808 4.20633,3.72635 -0.27958,-5.2e-4 -1.57811,-0.963 -2.88563,-2.13825 z m 12.15057,0.19273 c -0.43583,-0.17485 -1.36028,-0.52814 -2.05433,-0.78511 -0.69406,-0.25697 -1.13975,-0.58937 -0.99045,-0.73869 0.1493,-0.1493 1.25623,0.1225 2.45983,0.60414 2.10364,0.84171 2.29219,0.83093 4.87179,-0.27879 1.47591,-0.63491 2.80494,-1.03292 2.95341,-0.88444 0.33702,0.33703 -3.34766,1.91307 -5.12711,2.193 -0.72639,0.11426 -1.67731,0.0647 -2.11314,-0.11007 z m 9.77549,-3.2964 c 3.33519,-1.48592 5.04143,-1.75271 2.11094,-0.33008 -1.45279,0.70527 -2.99802,1.28011 -3.43387,1.27741 -0.43583,-0.003 0.15949,-0.42899 1.32293,-0.94733 z m -10.69371,-10.04203 c -1.00455,-0.83817 -2.55363,-1.0477 -10.30156,-1.39338 -5.34927,-0.23866 -8.57322,-0.56618 -7.7985,-0.79226 l 1.32072,-0.38536 -1.32072,-0.11711 c -1.19917,-0.10632 2.50407,-0.83743 9.141,-1.80474 l 2.53741,-0.36983 -2.37365,-1.81241 c -2.42863,-1.8544 -3.49361,-2.23854 -3.49361,-1.26013 0,1.19346 -2.61825,3.1457 -4.21885,3.1457 -1.88093,0 -2.795,-1.42957 -1.40977,-2.20479 1.14544,-0.64101 1.13255,-3.01203 -0.0187,-3.45383 -0.49847,-0.19127 -0.98459,-0.0672 -1.10059,0.28072 -0.11426,0.34283 -0.57728,0.62332 -1.02892,0.62332 -0.68109,0 -0.76483,-0.47902 -0.49104,-2.80865 l 0.33011,-2.80866 -3.43062,-2.518916 c -1.88683,-1.38541 -3.306269,-2.72011 -3.15432,-2.966 0.15197,-0.24586 -0.001,-0.619063 -0.342239,-0.829313 -0.38628,-0.238731 -0.477,-0.153269 -0.24158,0.227651 0.20733,0.33544 0.11771,0.609902 -0.19909,0.609902 -0.65279,0 -1.35418,-1.477945 -0.91147,-1.920636 0.1596,-0.159634 7.179029,3.428836 15.598689,7.974352 l 15.30846,8.26458 14.88541,-12.045786 c 8.18697,-6.62518 15.08498,-12.118679 15.32892,-12.207765 0.5602,-0.204589 0.36034,1.312217 -0.24556,1.863612 -0.24875,0.226377 -0.25852,0.07772 -0.0217,-0.330484 0.26821,-0.462294 0.22728,-0.616387 -0.10856,-0.408818 -0.29649,0.183234 -0.45099,0.99259 -0.34335,1.79856 0.10767,0.805956 0.0698,1.209833 -0.084,0.897484 -0.15387,-0.312334 -2.51343,1.698617 -5.24343,4.468802 l -4.96365,5.036719 1.55616,0.946356 c 1.83536,1.11615 2.6989,3.0794 2.48014,5.63856 -0.15142,1.77131 -0.1962,1.8082 -1.09594,0.90302 -0.51595,-0.51906 -1.28856,-0.80926 -1.71693,-0.64488 -1.05579,0.40515 -0.98885,2.80344 0.0952,3.4101 1.27326,0.71257 0.49064,2.20479 -1.15637,2.20479 -2.88801,0 -5.00057,-2.49324 -5.00057,-5.90172 v -1.7279 l -3.43385,3.40333 c -1.88862,1.87184 -3.43386,3.54468 -3.43386,3.71743 0,0.17276 3.26876,0.76656 7.26393,1.31954 3.99516,0.553 6.66961,1.10857 5.94322,1.2346 l -1.32073,0.22917 1.32073,0.36098 c 0.72639,0.19854 -3.0053,0.54569 -8.29263,0.77144 -8.4363,0.36021 -9.7238,0.53253 -10.51551,1.40737 -1.13707,1.25645 -2.77382,1.24702 -4.29809,-0.0247 z m 10.07334,-2.68606 5.37274,-0.27386 -3.83007,-0.4401 c -3.01569,-0.34654 -3.83008,-0.62401 -3.83008,-1.30499 0,-0.47568 3.74422,-4.66614 8.3205,-9.31211 4.57628,-4.645986 7.48846,-7.708991 6.4715,-6.806686 -3.17499,2.81707 -19.09884,15.570566 -19.73458,15.805526 -0.33242,0.12279 -5.42364,-2.36164 -11.31381,-5.5211 -5.89015,-3.15946 -10.4515,-5.43373 -10.13629,-5.05394 0.41841,0.50417 0.35754,1.10733 -0.22556,2.23492 -0.78051,1.50935 -0.77034,1.53897 0.44841,1.30599 1.72227,-0.32923 3.15262,1.85546 2.66584,4.07175 -0.21358,0.9725 -0.13956,1.60633 0.18751,1.60633 0.75306,0 2.18506,-2.15432 2.18506,-3.28726 0,-0.51646 0.38696,-0.93902 0.8599,-0.93902 1.17608,0 8.12095,5.21054 8.12095,6.09292 0,0.44745 -0.92807,0.83508 -2.50935,1.04811 -4.04548,0.54502 -3.84458,0.69728 0.97844,0.74155 3.87163,0.0355 4.81012,0.22588 6.33944,1.28583 l 1.79504,1.24413 1.23083,-1.11205 c 1.02679,-0.92772 2.12148,-1.15746 6.60358,-1.38594 z m 10.57759,-5.26695 c -0.44491,-2.22448 1.04466,-4.42331 2.77269,-4.09298 l 1.28062,0.2448 -0.95692,-1.64492 c -1.23081,-2.11576 -3.35595,-2.47294 -4.55217,-0.76512 -1.07594,1.53614 -1.08737,5.14049 -0.0211,6.66278 1.15559,1.64984 1.84974,1.45969 1.47689,-0.40456 z m 8.00228,-17.967875 c 0.52591,-0.581121 0.83733,-1.056578 0.69206,-1.056578 -0.14526,0 -0.69444,0.475457 -1.22033,1.056578 -0.52591,0.581106 -0.83733,1.056563 -0.69206,1.056563 0.14526,0 0.69444,-0.475457 1.22033,-1.056563 z M 79.68139,109.78168 c -1.05075,-1.16307 -1.91047,-2.4046 -1.91047,-2.75899 0,-0.35437 0.39305,-0.0564 0.87345,0.66188 0.4804,0.71842 1.47579,1.95995 2.21197,2.75899 0.73621,0.79902 1.20286,1.45278 1.03702,1.45278 -0.16581,0 -1.1612,-0.9516 -2.21197,-2.11466 z m 51.44637,0.26565 c 0.68242,-0.72639 1.35961,-1.3207 1.5049,-1.3207 0.14526,0 -0.2942,0.59431 -0.97661,1.3207 -0.68242,0.7264 -1.35962,1.32073 -1.50489,1.32073 -0.14526,0 0.29419,-0.59433 0.9766,-1.32073 z m 2.93953,-4.11699 c 0.19839,-0.52101 0.49379,-0.81421 0.65645,-0.65155 0.16264,0.16266 3.3e-4,0.58892 -0.3607,0.94729 -0.52175,0.51785 -0.58243,0.45717 -0.29575,-0.29574 z m -80.484541,98.90629 c -7.116432,-3.64874 -12.339825,-9.63771 -15.429383,-17.69083 -0.876114,-2.28365 -1.27391,-4.66034 -1.460484,-8.72603 -0.259847,-5.6622 0.268831,-8.76663 2.33221,-13.69487 0.668725,-1.5972 0.844712,-1.72407 1.29227,-0.93159 0.335351,0.59379 0.338765,1.61871 0.01048,2.90557 -1.011518,3.95555 -1.195666,7.5196 -0.593685,11.49091 1.851527,12.21457 8.255836,21.84369 17.711278,26.62958 1.736339,0.87884 2.879263,1.6074 2.539839,1.61901 -0.339438,0.012 -0.954253,0.15044 -1.366246,0.30854 -0.411993,0.15811 -2.677969,-0.70153 -5.035503,-1.91029 z m 4.6416,1.09456 c -0.435833,-0.28167 -1.030147,-0.5121 -1.320707,-0.5121 -0.290561,0 -0.171689,0.23043 0.264144,0.5121 0.435833,0.28166 1.030147,0.5121 1.320708,0.5121 0.29056,0 0.171688,-0.23044 -0.264145,-0.5121 z m -3.169705,-1.30213 c 0,-0.13507 -0.534893,-0.50476 -1.188642,-0.82157 -1.141442,-0.55313 -1.147911,-0.54338 -0.163183,0.24554 1.077842,0.86354 1.351825,0.98028 1.351825,0.57603 z m -6.23286,-4.95104 c -6.362888,-6.49101 -10.116438,-15.82176 -10.221578,-25.40923 -0.0584,-5.32819 -0.582379,-5.21404 -1.21726,0.26522 -1.008853,8.70694 3.937129,20.00597 11.400906,26.04519 1.842453,1.49081 3.401323,2.71056 3.464143,2.71056 0.06289,0 -1.478978,-1.62527 -3.426211,-3.61174 z m -8.604365,-35.21725 c 0.01602,-0.29056 -0.201399,-0.1717 -0.483065,0.26413 -0.281665,0.43585 -0.499042,1.14904 -0.483064,1.58487 0.0307,0.83671 0.911126,-0.84832 0.966129,-1.849 z M 10.724915,140.99436 c -0.893185,-0.56844 5.955088,-4.11875 16.858868,-8.74007 8.541755,-3.62023 15.316591,-7.05752 18.820942,-9.54902 1.415694,-1.00651 2.653859,-1.59037 2.751496,-1.29748 0.09764,0.29291 0.418657,0.38353 0.713396,0.20137 1.250549,-0.77289 -0.705084,1.8477 -2.863824,3.83753 -4.716145,4.34719 -11.294329,7.53889 -26.412052,12.81495 -4.280357,1.49385 -8.084013,2.82667 -8.452564,2.96184 -0.368565,0.13522 -1.005872,0.032 -1.416262,-0.22912 z m 1.798994,-0.56456 c 0.185076,-0.29946 -0.02695,-0.38802 -0.497111,-0.20761 -0.915214,0.35119 -1.082664,0.72985 -0.322757,0.72985 0.273399,0 0.642339,-0.235 0.819868,-0.52224 z m 2.381014,-1.06261 c 0.435848,-0.28167 0.554705,-0.5121 0.264145,-0.5121 -0.290561,0 -0.884875,0.23043 -1.320708,0.5121 -0.435833,0.28166 -0.554705,0.5121 -0.264144,0.5121 0.29056,0 0.884874,-0.23044 1.320707,-0.5121 z m 10.127999,-3.75564 c 9.181713,-3.2739 16.698547,-7.0373 20.447485,-10.23732 2.968035,-2.53348 3.239158,-3.24036 0.426054,-1.11088 -2.29633,1.73829 -9.553977,5.31769 -19.937584,9.83303 -4.777663,2.07758 -8.785713,3.8757 -8.906786,3.99583 -0.483903,0.48015 0.70423,0.11037 7.970831,-2.48066 z M 117.59078,85.61413 c 6.77749,-5.738505 15.79786,-13.362126 20.04526,-16.941396 9.67062,-8.149409 10.53316,-9.133628 10.08728,-11.510359 -0.22518,-1.200278 -0.13403,-1.792586 0.27602,-1.792586 0.33676,0 1.15215,-0.582513 1.81195,-1.294456 1.13615,-1.225915 1.37951,-1.270017 4.59727,-0.833195 1.86869,0.253692 6.2282,0.629295 9.68779,0.834678 6.01474,0.357079 6.27403,0.329944 5.92135,-0.619592 -0.20285,-0.546154 -1.36933,-3.322165 -2.59217,-6.168902 -1.634,-3.803896 -2.4334,-5.108041 -3.01576,-4.91994 -0.43585,0.140765 -2.8663,1.113438 -5.40102,2.16148 -5.8436,2.416191 -9.06176,2.823991 -11.27517,1.428768 -1.59635,-1.006262 -1.61438,-1.066537 -1.23321,-4.125515 0.65234,-5.235299 0.56899,-9.304897 -0.18439,-9.0033 -0.3632,0.145407 -2.87129,1.020847 -5.57355,1.945435 -2.70226,0.924588 -4.83313,1.835789 -4.73527,2.024879 2.34188,4.524853 4.10146,8.419588 4.10146,9.078339 0,0.462025 0.73186,1.381147 1.62638,2.042489 1.85048,1.368118 1.74843,2.124851 -0.12773,0.94732 -0.67896,-0.426129 -2.42311,-1.162212 -3.8759,-1.635722 -1.52949,-0.498519 -4.30658,-2.194335 -6.59699,-4.028417 -8.22351,-6.585102 -16.50248,-9.680306 -25.89259,-9.680306 -10.50038,0 -18.7465,3.426766 -28.54972,11.864129 -1.958849,1.685934 -4.240979,3.228062 -5.071409,3.426945 -3.521046,0.843289 -3.610836,1.169864 -0.91608,3.331913 l 2.48975,1.997564 3.463629,-3.671622 c 11.89919,-12.613778 27.1503,-16.581906 41.69752,-10.849122 3.85453,1.519007 2.65362,2.05974 -3.68526,1.659368 -12.69984,-0.802122 -25.21348,3.533328 -35.72725,12.377982 l -2.79012,2.347186 2.45372,1.5561 c 6.1236,3.883473 13.89305,7.315105 19.51255,8.618351 11.26644,2.612858 24.05076,-1.446976 39.71598,-12.612386 5.5307,-3.942025 7.2057,-4.474133 2.41128,-0.766032 -6.27108,4.850201 -13.00003,8.747946 -20.21259,11.708134 -10.36336,4.253342 -18.06547,4.297488 -29.09464,0.166747 -5.159,-1.932198 -15.02094,-7.340443 -15.456889,-8.476494 -0.1818,-0.473779 0.754389,-1.650322 2.499519,-3.141221 7.85774,-6.713079 17.15316,-10.968742 26.81966,-12.278683 3.42904,-0.46469 7.56746,-0.688177 9.68535,-0.523047 3.60067,0.280751 3.64545,0.26937 1.70124,-0.432329 -6.45584,-2.330039 -14.08958,-2.358791 -21.27454,-0.08012 -6.04343,1.916624 -10.34587,4.648818 -16.07159,10.205945 -2.7682,2.686699 -5.270819,4.880391 -5.561379,4.874895 -0.29056,-0.006 -1.1226,-0.486868 -1.84899,-1.069681 -0.7264,-0.582813 -1.94393,-1.522871 -2.705631,-2.089031 l -1.38492,-1.029384 -2.169208,3.092433 c -2.966537,4.229097 -8.643494,15.779035 -8.290982,16.868228 0.156983,0.485057 1.058405,1.397515 2.003149,2.027694 1.331939,0.888453 45.615141,23.29485 46.238941,23.39596 0.0798,0.0135 5.69043,-4.671607 12.46793,-10.410112 z m -82.850567,67.81556 c -2.063498,-2.02561 -2.06844,-2.03982 -0.411873,-1.18318 1.420876,0.73477 3.235145,2.86862 2.675319,3.14657 -0.09614,0.0478 -1.114726,-0.83577 -2.263446,-1.96339 z m 138.650407,2.08674 c 0,-1.49548 2.31777,-3.5446 4.75457,-4.20348 0.89995,-0.24334 0.70475,-0.0189 -0.61272,0.70446 -1.06339,0.58386 -2.43033,1.69327 -3.03764,2.46535 -0.60732,0.77209 -1.10421,1.23722 -1.10421,1.03367 z"
       id="path50" />
    <path
       style="fill:#000000;stroke-width:0.121127"
       d="m 97.477694,186.60734 c -0.198893,-0.14544 -0.209193,-0.27379 -0.113871,-1.4192 0.192567,-2.31397 0.06249,-3.23033 -0.439815,-3.09896 -0.180987,0.0473 -0.23188,-0.004 -0.23188,-0.23084 0,-0.17667 0.07063,-0.29148 0.179382,-0.29148 0.09865,0 0.204154,-0.12267 0.234432,-0.27254 0.178759,-0.88494 0.241622,-1.61032 0.225687,-2.60424 -0.01,-0.61623 -0.01775,-1.77451 -0.01753,-2.57394 0.0015,-2.94349 -0.0043,-4.11214 -0.02983,-6.54087 -0.0164,-1.56757 0.0323,-2.86273 0.132072,-3.5127 0.164486,-1.07146 0.182796,-4.89231 0.02742,-5.73059 l -0.08553,-0.46156 -1.387428,1.40677 c -1.165303,1.18156 -1.517612,1.46391 -2.200591,1.76367 -0.447246,0.1963 -0.872174,0.35691 -0.944276,0.35691 -0.202414,0 -0.155508,-0.74791 0.09796,-1.56234 0.242922,-0.78051 0.990602,-1.69661 3.397786,-4.16316 l 1.036539,-1.0621 0.04142,-1.34753 c 0.02863,-0.93038 -0.0064,-1.43664 -0.112629,-1.63543 -0.279438,-0.52213 -0.04412,-0.59023 1.884117,-0.54514 l 1.740131,0.0407 0.73125,-0.88857 c 0.77011,-0.93581 3.79094,-3.8562 3.98883,-3.8562 0.0636,0 0.34318,0.29483 0.62119,0.65518 l 0.50548,0.65518 -0.189,0.4523 c -0.11247,0.26919 -0.71353,0.95998 -1.48458,1.70621 -0.79822,0.77254 -1.25119,1.29575 -1.17992,1.36293 0.0686,0.0647 2.2281,0.0618 5.30278,-0.007 4.15087,-0.0927 5.22415,-0.0852 5.3725,0.038 0.37803,0.31374 0.46088,0.77732 0.47314,2.64693 0.007,1.03262 0.0558,3.0328 0.10891,4.44485 l 0.0966,2.56738 -0.35011,0.0715 c -1.55437,0.31744 -2.39088,0.83547 -3.93685,2.43809 -1.41545,1.46731 -1.80431,2.4332 -1.81901,4.51838 -0.007,1.11022 0.0189,1.2449 0.4187,2.1102 0.50218,1.08693 1.44727,2.15107 2.28939,2.57781 0.69634,0.35286 1.89604,0.64795 2.64422,0.65037 0.30372,7e-4 0.65102,0.074 0.7718,0.16236 0.34384,0.25142 0.45965,1.30668 0.26156,2.3831 -0.10768,0.58524 -0.1447,1.34392 -0.10399,2.13239 0.0822,1.59288 0.0519,1.61984 -1.84163,1.62909 -0.73464,0.004 -1.77177,0.059 -2.30473,0.12314 -1.73319,0.20859 -2.26144,0.23831 -5.14791,0.28963 -2.90447,0.0516 -3.69641,0.11936 -3.97003,0.33923 -0.11043,0.0887 -0.15152,0.52522 -0.144,1.53001 0.0187,2.50875 0.006,2.67767 -0.19363,2.67767 -0.25466,0 -0.71722,-0.30894 -1.58045,-1.05556 -0.407111,-0.35211 -0.772041,-0.64021 -0.810951,-0.64021 -0.0389,0 -0.282124,0.29519 -0.540479,0.65598 -0.258356,0.3608 -0.634984,0.79502 -0.836947,0.96496 -0.317032,0.26677 -0.397087,0.28714 -0.585886,0.14909 z m 1.773806,-2.49795 0.318509,-0.4228 0.813341,0.87826 c 0.44733,0.48304 0.8627,0.84775 0.92304,0.81046 0.0604,-0.0374 0.1097,-0.6895 0.1097,-1.44935 0,-1.19358 -0.0289,-1.39636 -0.21197,-1.49033 -0.38277,-0.19642 -2.750374,-0.27741 -2.989874,-0.10226 -0.229633,0.1679 -0.271682,0.61043 -0.2149,2.26169 l 0.03125,0.90846 0.451198,-0.48564 c 0.248161,-0.26712 0.594532,-0.67593 0.769714,-0.90846 z m 1.04707,-2.74047 0.73493,-0.0768 0.13553,-0.77824 c 0.0745,-0.42802 0.13114,-1.60624 0.1258,-2.61826 -0.006,-1.01202 0.0251,-6.38632 0.0677,-11.94291 l 0.0774,-10.10288 -1.01122,0.89721 c -0.556161,0.49345 -1.290522,1.18963 -1.631901,1.54706 -0.765508,0.80146 -0.753455,0.71655 -0.70756,4.98256 0.02263,2.10117 -0.02022,3.66836 -0.123949,4.53726 -0.08717,0.73007 -0.137524,1.92923 -0.111892,2.66481 0.07939,2.27893 0.07063,5.85591 -0.01909,7.76407 -0.04715,1.0031 -0.04694,2.13413 3.11e-4,2.51339 l 0.08615,0.68957 h 0.821407 c 0.451777,0 1.152123,-0.0345 1.556334,-0.0768 z m 7.35558,-0.66644 c 0.5089,-0.0734 1.77661,-0.0894 3.17086,-0.0399 2.88944,0.10227 3.70486,0.0253 3.91638,-0.36991 0.12181,-0.22771 0.12242,-0.40202 0.002,-0.86803 -0.0825,-0.32069 -0.14593,-1.16683 -0.1411,-1.88031 0.005,-0.71347 -0.0434,-1.32949 -0.10731,-1.36893 -0.17755,-0.10977 -1.31867,-0.38445 -1.9964,-0.48061 -1.17985,-0.16742 -1.81392,-0.61313 -3.14225,-2.20876 -0.17824,-0.21411 -0.45554,-0.78644 -0.61622,-1.27183 -0.2705,-0.81714 -0.28906,-1.03063 -0.25046,-2.88114 0.0229,-1.09923 0.0622,-2.10269 0.0873,-2.22994 0.0493,-0.24994 0.12931,-0.34589 1.31741,-1.57867 0.99176,-1.02905 2.86111,-2.4477 3.79018,-2.87637 0.25254,-0.11653 0.5394,-0.29209 0.63745,-0.39014 0.25404,-0.25405 0.32453,-2.12894 0.19927,-5.29974 -0.11665,-2.95209 -0.18013,-3.17797 -0.9329,-3.31919 -0.23438,-0.044 -1.72012,-0.009 -3.30163,0.0787 -1.58152,0.0873 -3.83232,0.14545 -5.0018,0.12936 l -2.12633,-0.0293 -0.67129,0.70376 -0.67127,0.70376 0.0612,5.8729 c 0.0336,3.23008 0.0561,6.71773 0.0496,7.75035 -0.0354,5.7274 -0.12464,10.64596 -0.19938,10.98345 -0.0583,0.26301 -0.0216,0.50796 0.11591,0.77377 l 0.20113,0.38894 2.38051,-0.0849 c 1.30928,-0.0467 2.76206,-0.13998 3.2284,-0.20719 z m -4.4339,-20.22793 c -0.13383,-0.46612 -0.31069,-2.31247 -0.33602,-3.50804 l -0.0328,-1.54875 0.40277,-0.0669 c 0.22152,-0.0368 2.72785,-0.0902 5.56962,-0.11898 l 5.16683,-0.0521 0.0685,0.80824 c 0.0377,0.44453 0.0291,1.54356 -0.0189,2.44227 l -0.0874,1.63405 -0.60563,0.0974 c -0.33311,0.0535 -2.59515,0.11345 -5.0268,0.13322 -2.43162,0.0197 -4.57104,0.0782 -4.75424,0.12993 -0.18321,0.0517 -0.33884,0.0741 -0.34585,0.0497 z m 10.25797,-0.8656 c 0.0681,-0.079 0.12194,-3.47432 0.06,-3.78164 -0.072,-0.35751 -0.084,-0.36269 -0.73782,-0.32088 -0.36553,0.0234 -0.72739,0.0938 -0.80414,0.15639 -0.0773,0.0632 -1.85485,0.13792 -3.98736,0.16782 -2.1163,0.0298 -4.02871,0.0879 -4.24978,0.12934 l -0.40194,0.0755 0.0759,1.65231 c 0.0417,0.90876 0.1,1.67956 0.1294,1.71287 0.0295,0.0333 1.62539,0.0878 3.54654,0.12107 1.92117,0.0333 3.53833,0.10792 3.59372,0.16569 0.0821,0.0857 2.69785,0.0123 2.77548,-0.0784 z m -0.64593,-0.36113 c -0.0651,-0.0825 -0.15231,-0.45327 -0.1938,-0.82386 -0.0906,-0.80833 -0.30522,-1.46996 -0.44827,-1.38155 -0.057,0.0353 -0.14055,0.38951 -0.18553,0.78719 -0.1008,0.89117 -0.34953,0.9689 -0.47267,0.14771 -0.0978,-0.65276 -0.26828,-1.03604 -0.41915,-0.9428 -0.0563,0.0348 -0.14101,0.49964 -0.18822,1.03298 -0.0605,0.68289 -0.13348,0.96969 -0.24687,0.96969 -0.0886,0 -0.17829,-0.14989 -0.19937,-0.33309 -0.0622,-0.5407 0.11898,-1.97476 0.27303,-2.16033 0.20961,-0.25255 0.54062,-0.20873 0.76401,0.10116 l 0.19646,0.27254 0.19647,-0.27254 c 0.3042,-0.42199 0.5186,-0.32818 0.83052,0.36338 0.46926,1.04034 0.54304,2.80973 0.0934,2.23952 z m -5.55298,-0.10805 c -0.0515,-0.0832 -0.11752,-0.73265 -0.14679,-1.44305 -0.0566,-1.37234 0.035,-1.63632 0.42637,-1.2292 0.11902,0.12381 0.53366,0.56185 0.92144,0.97343 0.38779,0.41159 0.72032,0.74834 0.73896,0.74834 0.0187,0 0.13016,-0.40882 0.24782,-0.90846 0.14991,-0.63656 0.26886,-0.90846 0.39743,-0.90846 0.20243,0 0.18228,0.26652 -0.12632,1.67015 -0.22334,1.01587 -0.38519,1.16391 -0.75635,0.69183 -0.15713,-0.19985 -0.50653,-0.60647 -0.77643,-0.9036 l -0.49074,-0.54023 v 0.8585 c 0,0.59126 -0.0532,0.90264 -0.1709,1.00033 -0.13127,0.1089 -0.19261,0.10669 -0.26449,-0.01 z m -3.24384,-0.36 c -0.0949,-0.47456 -0.0782,-1.4033 0.0324,-1.80086 0.11993,-0.43096 0.92922,-0.87356 1.45669,-0.79664 0.47267,0.069 0.61094,0.22901 0.61358,0.71039 0.002,0.43905 -0.43637,0.87336 -1.07594,1.06498 -0.45877,0.13745 -0.49959,0.18275 -0.47629,0.52868 0.048,0.71223 -0.41716,0.96017 -0.5505,0.29345 z m 1.30092,-1.32604 c 0.4346,-0.34187 0.43956,-0.83911 0.008,-0.83911 -0.53683,0 -0.77936,0.20864 -0.77936,0.67047 0,0.50232 0.27134,0.56166 0.77099,0.16864 z m -11.45517,5.02731 c 0.264032,-0.18493 0.265651,-0.19929 0.06143,-0.54506 -0.260851,-0.4416 -0.35115,-0.44616 -0.43674,-0.022 -0.03697,0.18319 -0.104124,0.42847 -0.149231,0.54506 -0.104419,0.26994 0.155084,0.28083 0.524572,0.022 z m 1.852297,-1.84943 c 1.336656,-1.42471 1.583481,-1.78586 1.541248,-2.25508 l -0.03754,-0.41736 -1.550076,1.46385 -1.550083,1.46386 0.26908,0.28642 c 0.147986,0.15753 0.332394,0.28641 0.409777,0.28641 0.07739,0 0.49032,-0.37264 0.917623,-0.8281 z m 4.071422,-4.20774 c 0.534831,-0.59459 1.088881,-1.18492 1.231221,-1.31183 0.30157,-0.26887 0.37548,-1.16221 0.0962,-1.16221 -0.0895,0 -0.79756,0.65397 -1.573571,1.45328 -1.400874,1.44294 -1.411493,1.45825 -1.492785,2.15002 l -0.08187,0.69672 0.424227,-0.37246 c 0.233322,-0.20485 0.861809,-0.85893 1.396638,-1.45352 z m 0.326031,-2.61668 c -0.0727,-0.11763 -1.067159,-0.11185 -1.50023,0.009 -0.263495,0.0733 -0.321846,0.19209 -0.455234,0.92665 -0.08416,0.46341 -0.12308,0.92093 -0.08651,1.0167 0.04645,0.12157 0.373646,-0.13143 1.085015,-0.83911 0.560198,-0.55728 0.990819,-1.05807 0.956959,-1.11286 z m 1.95133,0.26376 c 0.12058,-0.13324 0.1699,-0.24642 0.10961,-0.25151 -0.0603,-0.005 -0.205,-0.0275 -0.32159,-0.0499 -0.15449,-0.0295 -0.21197,0.0386 -0.21197,0.25152 0,0.35557 0.1331,0.37122 0.42395,0.0498 z m 1.70866,-1.7981 c 1.34583,-1.26312 2.25403,-2.38566 2.20326,-2.72327 -0.0197,-0.13113 -0.13675,-0.29849 -0.26005,-0.37191 -0.18765,-0.11173 -0.26664,-0.0742 -0.48451,0.22988 -0.14317,0.19987 -0.69867,0.8267 -1.23445,1.39297 -0.53577,0.56627 -1.23177,1.33927 -1.54668,1.71778 l -0.57254,0.68822 0.33541,0.0506 c 0.18447,0.0279 0.354,0.0589 0.37673,0.0688 0.0228,0.01 0.555,-0.46396 1.18283,-1.05319 z"
       id="path24" />
  </g>
</svg>
